<?xml version="1.0" encoding="UTF-8" standalone="no"?>
<!DOCTYPE svg PUBLIC "-//W3C//DTD SVG 1.1//EN"
 "http://www.w3.org/Graphics/SVG/1.1/DTD/svg11.dtd">
<!-- Generated by graphviz version 2.38.0 (20140413.2041)
 -->
<!-- Title: controllers_diagram Pages: 1 -->
<svg width="562pt" height="526pt"
 viewBox="0.00 0.00 562.00 525.50" xmlns="http://www.w3.org/2000/svg" xmlns:xlink="http://www.w3.org/1999/xlink">
<g id="graph0" class="graph" transform="scale(1 1) rotate(0) translate(191 300.5)">
<title>controllers_diagram</title>
<polygon fill="none" stroke="none" points="-191,225 -191,-300.5 371,-300.5 371,225 -191,225"/>
<!-- _diagram_info -->
<g id="node1" class="node"><title>_diagram_info</title>
<text text-anchor="start" x="161" y="-216.6" font-family="Times,serif" font-size="13.00">Controllers diagram</text>
<text text-anchor="start" x="161" y="-202.6" font-family="Times,serif" font-size="13.00">Date: Dec 01 2016 &#45; 19:20</text>
<text text-anchor="start" x="161" y="-188.6" font-family="Times,serif" font-size="13.00">Migration version: 20161029143756</text>
<text text-anchor="start" x="161" y="-174.6" font-family="Times,serif" font-size="13.00">Generated by RailRoady 1.5.2</text>
<text text-anchor="start" x="161" y="-160.6" font-family="Times,serif" font-size="13.00">http://railroady.prestonlee.com</text>
</g>
<!-- ApplicationController -->
<g id="node2" class="node"><title>ApplicationController</title>
<path fill="none" stroke="black" d="M114.5,220.5C114.5,220.5 227.5,220.5 227.5,220.5 233.5,220.5 239.5,214.5 239.5,208.5 239.5,208.5 239.5,139.5 239.5,139.5 239.5,133.5 233.5,127.5 227.5,127.5 227.5,127.5 114.5,127.5 114.5,127.5 108.5,127.5 102.5,133.5 102.5,139.5 102.5,139.5 102.5,208.5 102.5,208.5 102.5,214.5 108.5,220.5 114.5,220.5"/>
<text text-anchor="middle" x="171" y="142.7" font-family="Times,serif" font-size="14.00">ApplicationController</text>
<polyline fill="none" stroke="black" points="102.5,150.5 239.5,150.5 "/>
<text text-anchor="start" x="110.5" y="165.7" font-family="Times,serif" font-size="14.00">create_ransack_object</text>
<polyline fill="none" stroke="black" points="102.5,173.5 239.5,173.5 "/>
<polyline fill="none" stroke="black" points="102.5,197.5 239.5,197.5 "/>
<text text-anchor="start" x="110.5" y="212.7" font-family="Times,serif" font-size="14.00">_layout</text>
</g>
<!-- CategoriesController -->
<g id="node3" class="node"><title>CategoriesController</title>
<path fill="none" stroke="black" d="M-56,118C-56,118 50,118 50,118 56,118 62,112 62,106 62,106 62,-98 62,-98 62,-104 56,-110 50,-110 50,-110 -56,-110 -56,-110 -62,-110 -68,-104 -68,-98 -68,-98 -68,106 -68,106 -68,112 -62,118 -56,118"/>
<text text-anchor="middle" x="-3" y="-94.8" font-family="Times,serif" font-size="14.00">CategoriesController</text>
<polyline fill="none" stroke="black" points="-68,-87 62,-87 "/>
<text text-anchor="start" x="-60" y="-71.8" font-family="Times,serif" font-size="14.00">create</text>
<text text-anchor="start" x="-60" y="-56.8" font-family="Times,serif" font-size="14.00">destroy</text>
<text text-anchor="start" x="-60" y="-41.8" font-family="Times,serif" font-size="14.00">edit</text>
<text text-anchor="start" x="-60" y="-26.8" font-family="Times,serif" font-size="14.00">index</text>
<text text-anchor="start" x="-60" y="-11.8" font-family="Times,serif" font-size="14.00">new</text>
<text text-anchor="start" x="-60" y="3.2" font-family="Times,serif" font-size="14.00">show</text>
<text text-anchor="start" x="-60" y="18.2" font-family="Times,serif" font-size="14.00">update</text>
<polyline fill="none" stroke="black" points="-68,26 62,26 "/>
<polyline fill="none" stroke="black" points="-68,50 62,50 "/>
<text text-anchor="start" x="-60" y="65.2" font-family="Times,serif" font-size="14.00">_layout</text>
<text text-anchor="start" x="-60" y="80.2" font-family="Times,serif" font-size="14.00">category_params</text>
<text text-anchor="start" x="-60" y="95.2" font-family="Times,serif" font-size="14.00">find_category</text>
<text text-anchor="start" x="-60" y="110.2" font-family="Times,serif" font-size="14.00">its_admin?</text>
</g>
<!-- PurchasesController -->
<g id="node4" class="node"><title>PurchasesController</title>
<path fill="none" stroke="black" d="M-39,-136.5C-39,-136.5 63,-136.5 63,-136.5 69,-136.5 75,-142.5 75,-148.5 75,-148.5 75,-277.5 75,-277.5 75,-283.5 69,-289.5 63,-289.5 63,-289.5 -39,-289.5 -39,-289.5 -45,-289.5 -51,-283.5 -51,-277.5 -51,-277.5 -51,-148.5 -51,-148.5 -51,-142.5 -45,-136.5 -39,-136.5"/>
<text text-anchor="middle" x="12" y="-274.3" font-family="Times,serif" font-size="14.00">PurchasesController</text>
<polyline fill="none" stroke="black" points="-51,-266.5 75,-266.5 "/>
<text text-anchor="start" x="-43" y="-251.3" font-family="Times,serif" font-size="14.00">create</text>
<text text-anchor="start" x="-43" y="-236.3" font-family="Times,serif" font-size="14.00">dashboard</text>
<text text-anchor="start" x="-43" y="-221.3" font-family="Times,serif" font-size="14.00">destroy</text>
<text text-anchor="start" x="-43" y="-206.3" font-family="Times,serif" font-size="14.00">update</text>
<polyline fill="none" stroke="black" points="-51,-198.5 75,-198.5 "/>
<polyline fill="none" stroke="black" points="-51,-174.5 75,-174.5 "/>
<text text-anchor="start" x="-43" y="-159.3" font-family="Times,serif" font-size="14.00">_layout</text>
<text text-anchor="start" x="-43" y="-144.3" font-family="Times,serif" font-size="14.00">its_admin?</text>
</g>
<!-- PagesController -->
<g id="node5" class="node"><title>PagesController</title>
<path fill="none" stroke="black" d="M-175,-188C-175,-188 -95,-188 -95,-188 -89,-188 -83,-194 -83,-200 -83,-200 -83,-284 -83,-284 -83,-290 -89,-296 -95,-296 -95,-296 -175,-296 -175,-296 -181,-296 -187,-290 -187,-284 -187,-284 -187,-200 -187,-200 -187,-194 -181,-188 -175,-188"/>
<text text-anchor="middle" x="-135" y="-280.8" font-family="Times,serif" font-size="14.00">PagesController</text>
<polyline fill="none" stroke="black" points="-187,-273 -83,-273 "/>
<text text-anchor="start" x="-179" y="-257.8" font-family="Times,serif" font-size="14.00">home</text>
<text text-anchor="start" x="-179" y="-242.8" font-family="Times,serif" font-size="14.00">profile</text>
<polyline fill="none" stroke="black" points="-187,-235 -83,-235 "/>
<polyline fill="none" stroke="black" points="-187,-211 -83,-211 "/>
<text text-anchor="start" x="-179" y="-195.8" font-family="Times,serif" font-size="14.00">_layout</text>
</g>
<!-- ProductsController -->
<g id="node6" class="node"><title>ProductsController</title>
<path fill="none" stroke="black" d="M114.5,101C114.5,101 209.5,101 209.5,101 215.5,101 221.5,95 221.5,89 221.5,89 221.5,-115 221.5,-115 221.5,-121 215.5,-127 209.5,-127 209.5,-127 114.5,-127 114.5,-127 108.5,-127 102.5,-121 102.5,-115 102.5,-115 102.5,89 102.5,89 102.5,95 108.5,101 114.5,101"/>
<text text-anchor="middle" x="162" y="-111.8" font-family="Times,serif" font-size="14.00">ProductsController</text>
<polyline fill="none" stroke="black" points="102.5,-104 221.5,-104 "/>
<text text-anchor="start" x="110.5" y="-88.8" font-family="Times,serif" font-size="14.00">create</text>
<text text-anchor="start" x="110.5" y="-73.8" font-family="Times,serif" font-size="14.00">destroy</text>
<text text-anchor="start" x="110.5" y="-58.8" font-family="Times,serif" font-size="14.00">edit</text>
<text text-anchor="start" x="110.5" y="-43.8" font-family="Times,serif" font-size="14.00">index</text>
<text text-anchor="start" x="110.5" y="-28.8" font-family="Times,serif" font-size="14.00">new</text>
<text text-anchor="start" x="110.5" y="-13.8" font-family="Times,serif" font-size="14.00">show</text>
<text text-anchor="start" x="110.5" y="1.2" font-family="Times,serif" font-size="14.00">update</text>
<polyline fill="none" stroke="black" points="102.5,9 221.5,9 "/>
<polyline fill="none" stroke="black" points="102.5,33 221.5,33 "/>
<text text-anchor="start" x="110.5" y="48.2" font-family="Times,serif" font-size="14.00">_layout</text>
<text text-anchor="start" x="110.5" y="63.2" font-family="Times,serif" font-size="14.00">find_product</text>
<text text-anchor="start" x="110.5" y="78.2" font-family="Times,serif" font-size="14.00">its_admin?</text>
<text text-anchor="start" x="110.5" y="93.2" font-family="Times,serif" font-size="14.00">product_params</text>
</g>
</g>
</svg>
