<?xml version="1.0" encoding="UTF-8" standalone="no"?>
<!DOCTYPE svg PUBLIC "-//W3C//DTD SVG 1.1//EN"
 "http://www.w3.org/Graphics/SVG/1.1/DTD/svg11.dtd">
<!-- Generated by graphviz version 2.38.0 (20140413.2041)
 -->
<!-- Title: models_diagram Pages: 1 -->
<svg width="498pt" height="230pt"
 viewBox="0.00 0.00 498.34 230.00" xmlns="http://www.w3.org/2000/svg" xmlns:xlink="http://www.w3.org/1999/xlink">
<g id="graph0" class="graph" transform="scale(1 1) rotate(0) translate(4 226)">
<title>models_diagram</title>
<polygon fill="none" stroke="none" points="-4,4 -4,-226 494.343,-226 494.343,4 -4,4"/>
<!-- _diagram_info -->
<g id="node1" class="node"><title>_diagram_info</title>
<text text-anchor="start" x="8" y="-207.6" font-family="Times,serif" font-size="13.00">Models diagram</text>
<text text-anchor="start" x="8" y="-193.6" font-family="Times,serif" font-size="13.00">Date: Dec 01 2016 &#45; 19:20</text>
<text text-anchor="start" x="8" y="-179.6" font-family="Times,serif" font-size="13.00">Migration version: 20161029143756</text>
<text text-anchor="start" x="8" y="-165.6" font-family="Times,serif" font-size="13.00">Generated by RailRoady 1.5.2</text>
<text text-anchor="start" x="8" y="-151.6" font-family="Times,serif" font-size="13.00">http://railroady.prestonlee.com</text>
</g>
<!-- User -->
<g id="node2" class="node"><title>User</title>
<ellipse fill="none" stroke="black" cx="191" cy="-90" rx="27.0966" ry="18"/>
<text text-anchor="middle" x="191" y="-86.3" font-family="Times,serif" font-size="14.00">User</text>
</g>
<!-- Purchase -->
<g id="node6" class="node"><title>Purchase</title>
<ellipse fill="none" stroke="black" cx="233" cy="-18" rx="42.4939" ry="18"/>
<text text-anchor="middle" x="233" y="-14.3" font-family="Times,serif" font-size="14.00">Purchase</text>
</g>
<!-- User&#45;&gt;Purchase -->
<g id="edge1" class="edge"><title>User&#45;&gt;Purchase</title>
<path fill="none" stroke="#36b8b3" d="M204.668,-66.2205C208.847,-59.2551 213.469,-51.5513 217.747,-44.4219"/>
<ellipse fill="none" stroke="#36b8b3" cx="202.588" cy="-69.6859" rx="4.00002" ry="4.00002"/>
<polygon fill="#36b8b3" stroke="#36b8b3" points="217.777,-44.3723 226.78,-38.1126 220.349,-40.0848 222.922,-35.7973 222.922,-35.7973 222.922,-35.7973 220.349,-40.0848 219.063,-33.4821 217.777,-44.3723 217.777,-44.3723"/>
</g>
<!-- Category -->
<g id="node3" class="node"><title>Category</title>
<ellipse fill="none" stroke="black" cx="275" cy="-183" rx="42.7926" ry="18"/>
<text text-anchor="middle" x="275" y="-179.3" font-family="Times,serif" font-size="14.00">Category</text>
</g>
<!-- Product -->
<g id="node4" class="node"><title>Product</title>
<ellipse fill="none" stroke="black" cx="275" cy="-90" rx="38.1938" ry="18"/>
<text text-anchor="middle" x="275" y="-86.3" font-family="Times,serif" font-size="14.00">Product</text>
</g>
<!-- Category&#45;&gt;Product -->
<g id="edge2" class="edge"><title>Category&#45;&gt;Product</title>
<path fill="none" stroke="#53b724" d="M275,-156.729C275,-144.725 275,-130.362 275,-118.129"/>
<ellipse fill="none" stroke="#53b724" cx="275" cy="-160.884" rx="4" ry="4"/>
<polygon fill="#53b724" stroke="#53b724" points="275,-118.04 279.5,-108.04 275,-113.04 275,-108.04 275,-108.04 275,-108.04 275,-113.04 270.5,-108.04 275,-118.04 275,-118.04"/>
</g>
<!-- Product&#45;&gt;Purchase -->
<g id="edge3" class="edge"><title>Product&#45;&gt;Purchase</title>
<path fill="none" stroke="#9d1813" d="M260.808,-65.3464C256.831,-58.7188 252.49,-51.4827 248.444,-44.7405"/>
<ellipse fill="none" stroke="#9d1813" cx="262.989" cy="-68.981" rx="4.00002" ry="4.00002"/>
<polygon fill="#9d1813" stroke="#9d1813" points="248.319,-44.5312 247.032,-33.641 245.746,-40.2437 243.174,-35.9562 243.174,-35.9562 243.174,-35.9562 245.746,-40.2437 239.315,-38.2715 248.319,-44.5312 248.319,-44.5312"/>
</g>
<!-- ApplicationRecord -->
<g id="node5" class="node"><title>ApplicationRecord</title>
<ellipse fill="none" stroke="black" cx="413" cy="-183" rx="77.1866" ry="18"/>
<text text-anchor="middle" x="413" y="-179.3" font-family="Times,serif" font-size="14.00">ApplicationRecord</text>
</g>
</g>
</svg>
