<?xml version="1.0" encoding="UTF-8" standalone="no"?>
<!DOCTYPE svg PUBLIC "-//W3C//DTD SVG 1.1//EN"
 "http://www.w3.org/Graphics/SVG/1.1/DTD/svg11.dtd">
<!-- Generated by graphviz version 2.38.0 (20140413.2041)
 -->
<!-- Title: models_diagram Pages: 1 -->
<svg width="552pt" height="566pt"
 viewBox="0.00 0.00 552.34 566.00" xmlns="http://www.w3.org/2000/svg" xmlns:xlink="http://www.w3.org/1999/xlink">
<g id="graph0" class="graph" transform="scale(1 1) rotate(0) translate(4 562)">
<title>models_diagram</title>
<polygon fill="none" stroke="none" points="-4,4 -4,-562 548.343,-562 548.343,4 -4,4"/>
<!-- _diagram_info -->
<g id="node1" class="node"><title>_diagram_info</title>
<text text-anchor="start" x="16" y="-529.1" font-family="Times,serif" font-size="13.00">Models diagram</text>
<text text-anchor="start" x="16" y="-515.1" font-family="Times,serif" font-size="13.00">Date: Dec 01 2016 &#45; 19:20</text>
<text text-anchor="start" x="16" y="-501.1" font-family="Times,serif" font-size="13.00">Migration version: 20161029143756</text>
<text text-anchor="start" x="16" y="-487.1" font-family="Times,serif" font-size="13.00">Generated by RailRoady 1.5.2</text>
<text text-anchor="start" x="16" y="-473.1" font-family="Times,serif" font-size="13.00">http://railroady.prestonlee.com</text>
</g>
<!-- User -->
<g id="node2" class="node"><title>User</title>
<path fill="none" stroke="black" d="M12,-173.5C12,-173.5 188,-173.5 188,-173.5 194,-173.5 200,-179.5 200,-185.5 200,-185.5 200,-402.5 200,-402.5 200,-408.5 194,-414.5 188,-414.5 188,-414.5 12,-414.5 12,-414.5 6,-414.5 0,-408.5 0,-402.5 0,-402.5 0,-185.5 0,-185.5 0,-179.5 6,-173.5 12,-173.5"/>
<text text-anchor="middle" x="100" y="-399.3" font-family="Times,serif" font-size="14.00">User</text>
<polyline fill="none" stroke="black" points="0,-391.5 200,-391.5 "/>
<text text-anchor="start" x="8" y="-376.3" font-family="Times,serif" font-size="14.00">id :INTEGER</text>
<text text-anchor="start" x="8" y="-361.3" font-family="Times,serif" font-size="14.00">email :varchar</text>
<text text-anchor="start" x="8" y="-346.3" font-family="Times,serif" font-size="14.00">encrypted_password :varchar</text>
<text text-anchor="start" x="8" y="-331.3" font-family="Times,serif" font-size="14.00">reset_password_token :varchar</text>
<text text-anchor="start" x="8" y="-316.3" font-family="Times,serif" font-size="14.00">reset_password_sent_at :datetime</text>
<text text-anchor="start" x="8" y="-301.3" font-family="Times,serif" font-size="14.00">remember_created_at :datetime</text>
<text text-anchor="start" x="8" y="-286.3" font-family="Times,serif" font-size="14.00">sign_in_count :integer</text>
<text text-anchor="start" x="8" y="-271.3" font-family="Times,serif" font-size="14.00">current_sign_in_at :datetime</text>
<text text-anchor="start" x="8" y="-256.3" font-family="Times,serif" font-size="14.00">last_sign_in_at :datetime</text>
<text text-anchor="start" x="8" y="-241.3" font-family="Times,serif" font-size="14.00">current_sign_in_ip :varchar</text>
<text text-anchor="start" x="8" y="-226.3" font-family="Times,serif" font-size="14.00">last_sign_in_ip :varchar</text>
<text text-anchor="start" x="8" y="-211.3" font-family="Times,serif" font-size="14.00">created_at :datetime</text>
<text text-anchor="start" x="8" y="-196.3" font-family="Times,serif" font-size="14.00">updated_at :datetime</text>
<text text-anchor="start" x="8" y="-181.3" font-family="Times,serif" font-size="14.00">role :integer</text>
</g>
<!-- Purchase -->
<g id="node6" class="node"><title>Purchase</title>
<path fill="none" stroke="black" d="M149.5,-0.5C149.5,-0.5 256.5,-0.5 256.5,-0.5 262.5,-0.5 268.5,-6.5 268.5,-12.5 268.5,-12.5 268.5,-124.5 268.5,-124.5 268.5,-130.5 262.5,-136.5 256.5,-136.5 256.5,-136.5 149.5,-136.5 149.5,-136.5 143.5,-136.5 137.5,-130.5 137.5,-124.5 137.5,-124.5 137.5,-12.5 137.5,-12.5 137.5,-6.5 143.5,-0.5 149.5,-0.5"/>
<text text-anchor="middle" x="203" y="-121.3" font-family="Times,serif" font-size="14.00">Purchase</text>
<polyline fill="none" stroke="black" points="137.5,-113.5 268.5,-113.5 "/>
<text text-anchor="start" x="145.5" y="-98.3" font-family="Times,serif" font-size="14.00">id :INTEGER</text>
<text text-anchor="start" x="145.5" y="-83.3" font-family="Times,serif" font-size="14.00">user_id :integer</text>
<text text-anchor="start" x="145.5" y="-68.3" font-family="Times,serif" font-size="14.00">product_id :integer</text>
<text text-anchor="start" x="145.5" y="-53.3" font-family="Times,serif" font-size="14.00">price :decimal</text>
<text text-anchor="start" x="145.5" y="-38.3" font-family="Times,serif" font-size="14.00">status :integer</text>
<text text-anchor="start" x="145.5" y="-23.3" font-family="Times,serif" font-size="14.00">created_at :datetime</text>
<text text-anchor="start" x="145.5" y="-8.3" font-family="Times,serif" font-size="14.00">updated_at :datetime</text>
</g>
<!-- User&#45;&gt;Purchase -->
<g id="edge1" class="edge"><title>User&#45;&gt;Purchase</title>
<path fill="none" stroke="#aa9d80" d="M158.5,-166.06C161.61,-159.312 164.686,-152.639 167.68,-146.142"/>
<ellipse fill="none" stroke="#aa9d80" cx="156.793" cy="-169.766" rx="4.00002" ry="4.00002"/>
<polygon fill="#aa9d80" stroke="#aa9d80" points="167.817,-145.843 176.09,-138.644 169.91,-141.302 172.003,-136.761 172.003,-136.761 172.003,-136.761 169.91,-141.302 167.916,-134.878 167.817,-145.843 167.817,-145.843"/>
</g>
<!-- Category -->
<g id="node3" class="node"><title>Category</title>
<path fill="none" stroke="black" d="M252.5,-451.5C252.5,-451.5 359.5,-451.5 359.5,-451.5 365.5,-451.5 371.5,-457.5 371.5,-463.5 371.5,-463.5 371.5,-545.5 371.5,-545.5 371.5,-551.5 365.5,-557.5 359.5,-557.5 359.5,-557.5 252.5,-557.5 252.5,-557.5 246.5,-557.5 240.5,-551.5 240.5,-545.5 240.5,-545.5 240.5,-463.5 240.5,-463.5 240.5,-457.5 246.5,-451.5 252.5,-451.5"/>
<text text-anchor="middle" x="306" y="-542.3" font-family="Times,serif" font-size="14.00">Category</text>
<polyline fill="none" stroke="black" points="240.5,-534.5 371.5,-534.5 "/>
<text text-anchor="start" x="248.5" y="-519.3" font-family="Times,serif" font-size="14.00">id :INTEGER</text>
<text text-anchor="start" x="248.5" y="-504.3" font-family="Times,serif" font-size="14.00">name :varchar</text>
<text text-anchor="start" x="248.5" y="-489.3" font-family="Times,serif" font-size="14.00">description :text</text>
<text text-anchor="start" x="248.5" y="-474.3" font-family="Times,serif" font-size="14.00">created_at :datetime</text>
<text text-anchor="start" x="248.5" y="-459.3" font-family="Times,serif" font-size="14.00">updated_at :datetime</text>
</g>
<!-- Product -->
<g id="node4" class="node"><title>Product</title>
<path fill="none" stroke="black" d="M230.5,-173.5C230.5,-173.5 381.5,-173.5 381.5,-173.5 387.5,-173.5 393.5,-179.5 393.5,-185.5 393.5,-185.5 393.5,-402.5 393.5,-402.5 393.5,-408.5 387.5,-414.5 381.5,-414.5 381.5,-414.5 230.5,-414.5 230.5,-414.5 224.5,-414.5 218.5,-408.5 218.5,-402.5 218.5,-402.5 218.5,-185.5 218.5,-185.5 218.5,-179.5 224.5,-173.5 230.5,-173.5"/>
<text text-anchor="middle" x="306" y="-399.3" font-family="Times,serif" font-size="14.00">Product</text>
<polyline fill="none" stroke="black" points="218.5,-391.5 393.5,-391.5 "/>
<text text-anchor="start" x="226.5" y="-376.3" font-family="Times,serif" font-size="14.00">id :INTEGER</text>
<text text-anchor="start" x="226.5" y="-361.3" font-family="Times,serif" font-size="14.00">name :varchar</text>
<text text-anchor="start" x="226.5" y="-346.3" font-family="Times,serif" font-size="14.00">reference :varchar</text>
<text text-anchor="start" x="226.5" y="-331.3" font-family="Times,serif" font-size="14.00">price :decimal</text>
<text text-anchor="start" x="226.5" y="-316.3" font-family="Times,serif" font-size="14.00">quantity :integer</text>
<text text-anchor="start" x="226.5" y="-301.3" font-family="Times,serif" font-size="14.00">brand :varchar</text>
<text text-anchor="start" x="226.5" y="-286.3" font-family="Times,serif" font-size="14.00">description :text</text>
<text text-anchor="start" x="226.5" y="-271.3" font-family="Times,serif" font-size="14.00">created_at :datetime</text>
<text text-anchor="start" x="226.5" y="-256.3" font-family="Times,serif" font-size="14.00">updated_at :datetime</text>
<text text-anchor="start" x="226.5" y="-241.3" font-family="Times,serif" font-size="14.00">category_id :integer</text>
<text text-anchor="start" x="226.5" y="-226.3" font-family="Times,serif" font-size="14.00">image_file_name :varchar</text>
<text text-anchor="start" x="226.5" y="-211.3" font-family="Times,serif" font-size="14.00">image_content_type :varchar</text>
<text text-anchor="start" x="226.5" y="-196.3" font-family="Times,serif" font-size="14.00">image_file_size :integer</text>
<text text-anchor="start" x="226.5" y="-181.3" font-family="Times,serif" font-size="14.00">image_updated_at :datetime</text>
</g>
<!-- Category&#45;&gt;Product -->
<g id="edge2" class="edge"><title>Category&#45;&gt;Product</title>
<path fill="none" stroke="#dfa356" d="M306,-443.28C306,-437.485 306,-431.468 306,-425.321"/>
<ellipse fill="none" stroke="#dfa356" cx="306" cy="-447.424" rx="4" ry="4"/>
<polygon fill="#dfa356" stroke="#dfa356" points="306,-424.872 310.5,-414.872 306,-419.872 306,-414.872 306,-414.872 306,-414.872 306,-419.872 301.5,-414.872 306,-424.872 306,-424.872"/>
</g>
<!-- Product&#45;&gt;Purchase -->
<g id="edge3" class="edge"><title>Product&#45;&gt;Purchase</title>
<path fill="none" stroke="#cbaca9" d="M247.5,-166.06C244.39,-159.312 241.314,-152.639 238.32,-146.142"/>
<ellipse fill="none" stroke="#cbaca9" cx="249.207" cy="-169.766" rx="4.00002" ry="4.00002"/>
<polygon fill="#cbaca9" stroke="#cbaca9" points="238.183,-145.843 238.084,-134.878 236.09,-141.302 233.997,-136.761 233.997,-136.761 233.997,-136.761 236.09,-141.302 229.91,-138.644 238.183,-145.843 238.183,-145.843"/>
</g>
<!-- ApplicationRecord -->
<g id="node5" class="node"><title>ApplicationRecord</title>
<ellipse fill="none" stroke="black" cx="467" cy="-504.5" rx="77.1866" ry="18"/>
<text text-anchor="middle" x="467" y="-500.8" font-family="Times,serif" font-size="14.00">ApplicationRecord</text>
</g>
</g>
</svg>
